<svg xmlns="http://www.w3.org/2000/svg" width="216" height="146" viewBox="0 0 216 146"><path fill="#F7960B" d="M172.77 123.025L144.825 95.08c6.735-9.723 10.104-20.56 10.104-32.508 0-7.767-1.51-15.195-4.524-22.283-3.014-7.09-7.088-13.2-12.22-18.333-5.135-5.133-11.243-9.207-18.33-12.22-7.09-3.016-14.52-4.523-22.287-4.523-7.768 0-15.196 1.507-22.284 4.522-7.09 3.014-13.2 7.088-18.332 12.22-5.133 5.134-9.207 11.245-12.22 18.333-3.016 7.088-4.523 14.515-4.523 22.282 0 7.767 1.508 15.193 4.523 22.283 3.014 7.088 7.088 13.196 12.22 18.33 5.134 5.133 11.245 9.207 18.333 12.222 7.09 3.015 14.516 4.522 22.283 4.522 11.95 0 22.787-3.37 32.508-10.105l27.944 27.862c1.955 2.064 4.397 3.097 7.332 3.097 2.824 0 5.27-1.032 7.332-3.097 2.064-2.062 3.097-4.508 3.097-7.332.002-2.876-1.002-5.32-3.013-7.33zm-49.413-34.668C116.214 95.5 107.62 99.07 97.57 99.07c-10.048 0-18.643-3.57-25.786-10.713C64.64 81.214 61.07 72.62 61.07 62.57c0-10.047 3.572-18.643 10.714-25.785C78.926 29.642 87.522 26.07 97.57 26.07c10.048 0 18.643 3.573 25.788 10.715 7.143 7.142 10.715 15.738 10.715 25.786 0 10.05-3.574 18.644-10.716 25.787z"/></svg>