<?xml version="1.0" encoding="utf-8"?>
<!-- Generator: Adobe Illustrator 16.0.0, SVG Export Plug-In . SVG Version: 6.00 Build 0)  -->
<!DOCTYPE svg PUBLIC "-//W3C//DTD SVG 1.1//EN" "http://www.w3.org/Graphics/SVG/1.1/DTD/svg11.dtd">
<svg version="1.1" id="Capa_1" xmlns="http://www.w3.org/2000/svg" xmlns:xlink="http://www.w3.org/1999/xlink" x="0px" y="0px"
	 width="216px" height="146px" viewBox="0 0 216 146" enable-background="new 0 0 216 146" xml:space="preserve">
<path fill="#F7960B" d="M172.77,123.025L144.825,95.08c6.735-9.723,10.104-20.559,10.104-32.508c0-7.767-1.509-15.195-4.523-22.283
	c-3.014-7.089-7.088-13.199-12.221-18.332c-5.134-5.133-11.242-9.207-18.33-12.221c-7.09-3.015-14.519-4.522-22.286-4.522
	c-7.767,0-15.195,1.507-22.283,4.522c-7.089,3.014-13.199,7.088-18.332,12.221c-5.133,5.133-9.207,11.244-12.221,18.332
	c-3.015,7.089-4.522,14.516-4.522,22.283c0,7.767,1.507,15.193,4.522,22.283c3.014,7.088,7.088,13.196,12.221,18.33
	c5.133,5.133,11.244,9.207,18.332,12.222c7.089,3.015,14.516,4.522,22.283,4.522c11.952,0,22.788-3.369,32.509-10.104l27.944,27.862
	c1.955,2.064,4.397,3.097,7.332,3.097c2.824,0,5.271-1.032,7.332-3.097c2.064-2.062,3.097-4.508,3.097-7.332
	C175.785,127.479,174.781,125.034,172.77,123.025z M123.357,88.357C116.214,95.5,107.619,99.07,97.57,99.07
	c-10.048,0-18.643-3.571-25.786-10.713C64.641,81.214,61.07,72.62,61.07,62.571c0-10.048,3.572-18.644,10.714-25.786
	c7.142-7.143,15.738-10.714,25.786-10.714c10.048,0,18.643,3.572,25.788,10.714c7.143,7.142,10.715,15.738,10.715,25.786
	C134.072,72.62,130.499,81.214,123.357,88.357z"/>
</svg>
